<?xml version="1.0" encoding="utf-8"?>
<svg version="1.1" xmlns:xlink="http://www.w3.org/1999/xlink" width="24px" height="25px" xmlns="http://www.w3.org/2000/svg">
  <g transform="matrix(1 0 0 1 -1493 -301 )">
    <path d="M 14.71875 15.33203125  C 15.983173076923078 14.014923878205126  16.615384615384613 12.42988782051282  16.615384615384613 10.576923076923078  C 16.615384615384613 8.723958333333332  15.983173076923078 7.138922275641024  14.71875 5.821814903846153  C 13.454326923076923 4.50470753205128  11.932692307692308 3.8461538461538463  10.153846153846153 3.8461538461538463  C 8.375 3.8461538461538463  6.853365384615386 4.50470753205128  5.5889423076923075 5.821814903846153  C 4.324519230769231 7.138922275641024  3.6923076923076925 8.723958333333332  3.6923076923076925 10.576923076923078  C 3.6923076923076925 12.42988782051282  4.324519230769231 14.014923878205126  5.5889423076923075 15.33203125  C 6.853365384615386 16.64913862179487  8.375 17.307692307692307  10.153846153846153 17.307692307692307  C 11.932692307692308 17.307692307692307  13.454326923076923 16.64913862179487  14.71875 15.33203125  Z M 23.466346153846153 21.724759615384613  C 23.822115384615387 22.095352564102566  24 22.54607371794872  24 23.076923076923077  C 24 23.597756410256412  23.817307692307693 24.048477564102566  23.451923076923077 24.42908653846154  C 23.086538461538463 24.80969551282051  22.653846153846157 25  22.153846153846153 25  C 21.634615384615387 25  21.201923076923077 24.80969551282051  20.85576923076923 24.42908653846154  L 15.908653846153845 19.290865384615387  C 14.1875 20.532852564102566  12.26923076923077 21.153846153846153  10.153846153846153 21.153846153846153  C 8.778846153846155 21.153846153846153  7.4639423076923075 20.875901442307693  6.209134615384615 20.32001201923077  C 4.954326923076923 19.764122596153847  3.8725961538461537 19.012920673076923  2.963942307692308 18.06640625  C 2.0552884615384617 17.119891826923077  1.3341346153846156 15.993088942307693  0.8004807692307692 14.685997596153847  C 0.2668269230769231 13.37890625  0 12.009214743589741  0 10.576923076923078  C 0 9.144631410256407  0.2668269230769231 7.774939903846153  0.8004807692307692 6.4678485576923075  C 1.3341346153846156 5.160757211538461  2.0552884615384617 4.033954326923078  2.963942307692308 3.0874399038461537  C 3.8725961538461537 2.1409254807692317  4.954326923076923 1.3897235576923073  6.209134615384615 0.8338341346153855  C 7.4639423076923075 0.2779447115384609  8.778846153846155 0  10.153846153846153 0  C 11.528846153846153 0  12.84375 0.2779447115384609  14.098557692307693 0.8338341346153855  C 15.353365384615385 1.3897235576923073  16.435096153846153 2.1409254807692317  17.34375 3.0874399038461537  C 18.252403846153847 4.033954326923078  18.973557692307693 5.160757211538461  19.507211538461537 6.4678485576923075  C 20.040865384615387 7.774939903846153  20.307692307692307 9.144631410256407  20.307692307692307 10.576923076923078  C 20.307692307692307 12.780448717948717  19.711538461538463 14.778645833333332  18.51923076923077 16.571514423076923  L 23.466346153846153 21.724759615384613  Z " fill-rule="nonzero" fill="#000000" stroke="none" transform="matrix(1 0 0 1 1493 301 )" />
  </g>
</svg>