<?xml version="1.0" encoding="utf-8"?>
<svg version="1.1" xmlns:xlink="http://www.w3.org/1999/xlink" width="50px" height="35px" xmlns="http://www.w3.org/2000/svg">
  <g transform="matrix(1 0 0 1 -527 -473 )">
    <path d="M 20 9.972222222222221  L 20 23.944444444444446  L 33.33333333333333 17  L 20 9.972222222222221  Z M 7.5250836120401345 0.4999999999999982  C 12.188777406168711 0.16666666666666607  18.013749535488664 0  25 0  C 28.121516164994425 0  31.136194723151245 0.04166666666666652  34.04403567447046 0.12499999999999956  C 36.95187662578967 0.2083333333333326  39.083983649201045 0.29629629629629395  40.44035674470457 0.3888888888888875  L 42.474916387959865 0.4999999999999982  C 42.49349684132293 0.4999999999999982  42.65143069490896 0.5138888888888871  42.94871794871795 0.5416666666666647  C 43.246005202526945 0.5694444444444463  43.45968041620216 0.597222222222224  43.58974358974359 0.6250000000000017  C 43.71980676328502 0.6527777777777793  43.938127090301 0.6944444444444459  44.24470457079153 0.7500000000000012  C 44.55128205128205 0.8055555555555566  44.81605351170568 0.8796296296296252  45.039018952062435 0.9722222222222227  C 45.26198439241917 1.0648148148148122  45.52211073950205 1.1851851851851798  45.819397993311036 1.3333333333333326  C 46.11668524712004 1.4814814814814774  46.4046822742475 1.6620370370370363  46.68338907469342 1.875000000000001  C 46.96209587513936 2.0879629629629584  47.231512448903764 2.333333333333333  47.491638795986624 2.61111111111111  C 47.60312151616499 2.7222222222222205  47.74712002972873 2.8935185185185146  47.923634336677814 3.1250000000000004  C 48.10014864362691 3.3564814814814787  48.36956521739131 3.898148148148147  48.731884057971016 4.749999999999998  C 49.09420289855073 5.601851851851846  49.3403939056113 6.5370370370370345  49.47045707915273 7.555555555555556  C 49.61910070605723 8.740740740740739  49.73522853957637 10.004629629629628  49.81884057971014 11.347222222222221  C 49.90245261984393 12.689814814814813  49.95354886659235 13.740740740740737  49.97212931995541 14.499999999999998  L 49.97212931995541 15.61111111111111  L 49.97212931995541 19.38888888888889  C 49.99070977331847 22.07407407407407  49.82348569305091 24.75925925925926  49.47045707915273 27.444444444444443  C 49.3403939056113 28.462962962962965  49.10813823857303 29.384259259259256  48.77369007803791 30.208333333333336  C 48.4392419175028 31.03240740740741  48.141954663693795 31.601851851851855  47.88182831661093 31.916666666666664  L 47.491638795986624 32.38888888888889  C 47.231512448903764 32.666666666666664  46.96209587513936 32.91203703703703  46.68338907469342 33.125  C 46.4046822742475 33.33796296296296  46.11668524712004 33.51388888888889  45.819397993311036 33.65277777777778  C 45.52211073950205 33.791666666666664  45.26198439241917 33.90740740740741  45.039018952062435 34  C 44.81605351170568 34.09259259259259  44.55128205128205 34.166666666666664  44.24470457079153 34.22222222222222  C 43.938127090301 34.27777777777778  43.71516164994426 34.31944444444444  43.57580824972129 34.34722222222222  C 43.43645484949833 34.375  43.222779635823116 34.40277777777778  42.934782608695656 34.43055555555556  C 42.64678558156819 34.458333333333336  42.49349684132293 34.47222222222222  42.474916387959865 34.47222222222222  C 37.81122259383129 34.824074074074076  31.986250464511336 35  25 35  C 21.153846153846153 34.96296296296297  17.81400966183575 34.90277777777778  14.980490523968784 34.81944444444444  C 12.146971386101821 34.736111111111114  10.28428093645485 34.66666666666667  9.39241917502787 34.611111111111114  L 8.02675585284281 34.5  L 7.023411371237458 34.388888888888886  C 6.354515050167224 34.2962962962963  5.848197696023783 34.2037037037037  5.504459308807135 34.11111111111111  C 5.160720921590487 34.01851851851852  4.6869193608324045 33.824074074074076  4.0830546265328875 33.52777777777778  C 3.4791898922333706 33.23148148148148  2.954292084726867 32.851851851851855  2.508361204013378 32.38888888888889  C 2.3968784838350055 32.27777777777778  2.252879970271275 32.10648148148148  2.076365663322185 31.875  C 1.8998513563730957 31.643518518518523  1.6304347826086956 31.10185185185185  1.2681159420289856 30.25  C 0.9057971014492754 29.398148148148145  0.6596060943887031 28.462962962962965  0.5295429208472687 27.444444444444443  C 0.3808992939427722 26.259259259259256  0.2647714604236344 24.995370370370367  0.18115942028985507 23.65277777777778  C 0.09754738015607581 22.31018518518518  0.04645113340765515 21.25925925925926  0.027870680044593088 20.499999999999996  L 0.027870680044593088 19.38888888888889  L 0.027870680044593088 15.61111111111111  C 0.009290226681531026 12.925925925925924  0.17651430694908954 10.240740740740739  0.5295429208472687 7.555555555555556  C 0.6596060943887031 6.5370370370370345  0.8918617614269788 5.615740740740735  1.2263099219620959 4.791666666666665  C 1.560758082497213 3.9675925925925917  1.858045336306206 3.3981481481481453  2.118171683389075 3.083333333333334  L 2.508361204013378 2.61111111111111  C 2.7684875510962472 2.333333333333333  3.0379041248606464 2.0879629629629584  3.3166109253065774 1.875000000000001  C 3.595317725752508 1.6620370370370363  3.8833147528799703 1.4814814814814774  4.1806020066889635 1.3333333333333326  C 4.477889260497957 1.1851851851851798  4.738015607580825 1.0648148148148122  4.96098104793757 0.9722222222222227  C 5.183946488294314 0.8796296296296252  5.448717948717949 0.8055555555555566  5.755295429208473 0.7500000000000012  C 6.061872909698997 0.6944444444444459  6.280193236714977 0.6527777777777793  6.41025641025641 0.6250000000000017  C 6.540319583797845 0.597222222222224  6.753994797473059 0.5694444444444463  7.051282051282051 0.5416666666666647  C 7.348569305091044 0.5138888888888871  7.506503158677074 0.4999999999999982  7.5250836120401345 0.4999999999999982  Z " fill-rule="nonzero" fill="#000000" stroke="none" transform="matrix(1 0 0 1 527 473 )" />
  </g>
</svg>