<?xml version="1.0" encoding="utf-8"?>
<svg version="1.1" xmlns:xlink="http://www.w3.org/1999/xlink" width="50px" height="29px" xmlns="http://www.w3.org/2000/svg">
  <g transform="matrix(1 0 0 1 -782 -476 )">
    <path d="M 49.765747006767306 1.850501367365541  L 49.92191566892244 2.1148587055606196  C 50.321013361096654 3.2427833485262836  49.01960784313726 5.833485262838042  46.017699115044245 9.886964448495897  C 45.60124934929725 10.450926769978727  45.0373069581815 11.199939228198115  44.32587194169703 12.134001823154058  C 43.63178899878536 13.03281677301732  43.15460697553358 13.667274384685504  42.894325871941696 14.037374658158615  C 42.634044768349824 14.407474931631722  42.369425646364746 14.8436645396536  42.10046850598646 15.345943482224248  C 41.83151136560819 15.848222424794896  41.72739892417144 16.218322698268004  41.788131181676206 16.456244302643572  C 41.84886343918099 16.69416590701914  41.96165191740413 16.998176845943483  42.126496616345655 17.36827711941659  C 42.29134131528718 17.738377392889696  42.57331251084505 18.117289577635976  42.972410203019265 18.505013673655423  C 43.37150789519348 18.892737769674866  43.866041992018054 19.35976906715284  44.45601249349298 19.906107566089332  C 44.52542078778414 19.94135521118201  44.56880097171612 19.976602856274685  44.58615304528891 20.011850501367363  C 47.032795419052576 22.320571254937708  48.68991844525421 24.268003646308113  49.557522123893804 25.85414767547858  C 49.60957834461218 25.94226678821027  49.66597258372376 26.052415679124884  49.726704841228525 26.184594348222426  C 49.7874370987333 26.316773017319964  49.84816935623807 26.550288666058947  49.90890161374284 26.88514129443938  C 49.96963387124762 27.219993922819814  49.965295852854425 27.519598906107564  49.895887558563246 27.783956244302644  C 49.82647926427208 28.04831358249772  49.60957834461218 28.29064114250988  49.245184799583555 28.510938924339104  C 48.880791254554914 28.731236706168335  48.36890508415756 28.841385597082954  47.709526288391466 28.841385597082954  L 41.04633003643936 28.947128532360985  C 40.62988027069235 29.035247645092674  40.14402221065418 28.991188088726833  39.58875585632483 28.814949863263447  C 39.03348950199549 28.63871163780006  38.582335589102904 28.444849589790337  38.23529411764706 28.233363719234276  L 37.7147319104633 27.91613491340018  C 37.19416970327954 27.546034639927072  36.586847128231824 26.982072318444246  35.89276418532015 26.224247948951685  C 35.19868124240847 25.46642357945913  34.60437272254035 24.783500455788513  34.109838625715774 24.17547857793984  C 33.6153045288912 23.567456700091157  33.08606628492105 23.05636584624734  32.52212389380531 22.642206016408387  C 31.958181502689577 22.228046186569433  31.4679854242582 22.091461561835303  31.05153565851119 22.232452142206018  C 30.999479437792814 22.25007596475236  30.930071143501653 22.280917654208444  30.84331077563769 22.324977210574293  C 30.75655040777373 22.369036766940138  30.609057782404996 22.496809480401094  30.400832899531494 22.708295350957158  C 30.19260801665799 22.91978122151322  30.00607322575048 23.17973260407171  29.841228526808955 23.488149498632637  C 29.67638382786743 23.79656639319356  29.5288912024987 24.25478577939836  29.39875065070276 24.86280765724704  C 29.268610098906823 25.470829535095714  29.212215859795247 26.15375265876633  29.22956793336804 26.911577028258886  C 29.22956793336804 27.175934366453966  29.199201804615655 27.418261926466123  29.13846954711088 27.63855970829535  C 29.07773728960611 27.85885749012458  29.01266701370814 28.021877848678212  28.94325871941697 28.127620783956246  L 28.83914627798022 28.259799453053784  C 28.526808953669963 28.594652081434216  28.066979003990983 28.788514129443936  27.45965642894326 28.841385597082954  L 24.466423737636646 28.841385597082954  C 23.23442651396842 28.911880887268307  21.967725143154606 28.766484351261017  20.66631962519521 28.405195989061077  C 19.364914107235816 28.043907626861134  18.224015269824744 27.57687632938317  17.243623112962 27.004102096627165  C 16.263230956099257 26.43132786387116  15.369599167100468 25.84974171984199  14.562727745965642 25.259343664539653  C 13.755856324830818 24.668945609237316  13.144195731389901 24.162260711030083  12.727745965642894 23.739288969917958  L 12.077043206663197 23.104831358249772  C 11.903522470935277 22.928593132786386  11.66493145930939 22.664235794591306  11.36127017178553 22.31175934366454  C 11.05760888426167 21.959282892737768  10.437272254034358 21.157398966879363  9.500260281103593 19.906107566089332  C 8.563248308172827 18.654816165299298  7.643588408814854 17.324217563050745  6.741280583029672 15.914311759343665  C 5.83897275724449 14.504405955636583  4.776158250910984 12.645092676997873  3.552837064029152 10.33637192342753  C 2.329515877147319 8.027651169857187  1.1972930765226444 5.630811303555151  0.15616866215512754 3.145852324521422  C 0.052056220718375845 2.8638711637800034  0 2.625949559404434  0 2.4320875113947142  C 0 2.2382254633849876  0.026028110359187923 2.09723488301428  0.07808433107756377 2.0091157702825884  L 0.18219677251431546 1.850501367365541  C 0.4424778761061947 1.51564873898511  0.9370119729307652 1.3482224247948964  1.665799062988027 1.3482224247948964  L 8.797501301405518 1.2953509571558808  C 9.005726184279021 1.3305986022485534  9.20527503036613 1.3878760255241558  9.39614783966684 1.467183226982681  C 9.587020648967552 1.5464904284412029  9.725837237549888 1.6213916742631385  9.812597605413847 1.691886964448497  L 9.942738157209787 1.7711941659070192  C 10.220371334374457 1.9650562139167391  10.42859621724796 2.2470373746581576  10.567412805830296 2.6171376481312674  C 10.914454277286136 3.498328775448189  11.31355196946035 4.410361592221206  11.76470588235294 5.35323609845032  C 12.215859795245533 6.2961106046794235  12.571577303487768 7.014281373442721  12.831858407079647 7.507748404740202  L 13.248308172826654 8.274384685505925  C 13.751518306437621 9.331814038286234  14.237376366475793 10.248252810695838  14.705882352941178 11.02370100273473  C 15.174388339406558 11.799149194773625  15.595176123546766 12.402765116985716  15.968245705361792 12.834548769371013  C 16.34131528717682 13.266332421756301  16.701370813812254 13.605591005773318  17.04841228526809 13.85232452142206  C 17.39545375672393 14.099058037070797  17.690439007461396 14.222424794895169  17.93336803748048 14.222424794895169  C 18.176297067499565 14.222424794895169  18.41055006073226 14.178365238529318  18.636127017178552 14.09024612579763  C 18.670831164324138 14.072622303251292  18.714211348256114 14.028562746885445  18.76626756897449 13.958067456700093  C 18.81832378969287 13.887572166514735  18.92243623112962 13.693710118505013  19.078604893284748 13.37648131267092  C 19.234773555439872 13.05925250683683  19.35190005205622 12.645092676997873  19.42998438313378 12.134001823154058  C 19.508068714211348 11.62291096931024  19.590491063682112 10.90914615618353  19.67725143154607 9.99270738377393  C 19.76401179941003 9.076268611364325  19.76401179941003 7.974779702218171  19.67725143154607 6.68824065633546  C 19.64254728440049 5.9832877544819185  19.564462953322924 5.340018231540567  19.442998438313378 4.758432087511394  C 19.321533923303836 4.176845943482224  19.200069408294294 3.7714980249164376  19.078604893284748 3.5423883318140383  L 18.92243623112962 3.2251595259799437  C 18.48863439180982 2.625949559404434  17.751171264966164 2.247037374658154  16.710046850598648 2.0884229717411134  C 16.48446989415235 2.053175326648434  16.52785007808433 1.841689456092368  16.840187402394584 1.4539653600729245  C 17.117820579559258 1.1191127316924938  17.447509977442305 0.8547553934974151  17.829255596043726 0.6608933454876951  C 18.748915495401704 0.2026739592828899  20.82248828735034 -0.008811911273173045  24.049973971889642 0.026435733819506257  C 25.47284400485858 0.04405955636584269  26.64410897102204 0.1586144029170472  27.563768870380013 0.3701002734731069  C 27.91081034183585 0.45821938620479874  28.201457574180118 0.5771801883925833  28.43571056741281 0.7269826800364639  C 28.669963560645495 0.8767851716803349  28.84782231476662 1.0882710422363977  28.96928682977616 1.3614402917046495  C 29.090751344785705 1.6346095411728947  29.181849731042863 1.9165907019143131  29.242581988547634 2.207383773928898  C 29.30331424605241 2.4981768459434797  29.33368037480479 2.8991188088726796  29.33368037480479 3.4102096627165004  C 29.33368037480479 3.921300516560315  29.325004338018395 4.405955636584623  29.3076522644456 4.864175022789425  C 29.290300190872813 5.3223944089942234  29.268610098906823 5.943634153752656  29.242581988547634 6.727894257064722  C 29.216553878188446 7.512154360376785  29.20353982300885 8.239137040413246  29.20353982300885 8.908842297174111  C 29.20353982300885 9.102704345183831  29.19486378622246 9.47280461865694  29.17751171264966 10.019143117593439  C 29.16015963907687 10.56548161652993  29.155821620683675 10.988453357642054  29.16449765747007 11.28805834092981  C 29.173173694256466 11.58766332421756  29.20353982300885 11.944545730780915  29.255596043727227 12.358705560619871  C 29.3076522644456 12.772865390458827  29.407426687489156 13.116529930112428  29.554919312857887 13.389699179580676  C 29.702411938226618 13.662868429048919  29.897622765920527 13.878760255241568  30.14055179593961 14.037374658158615  C 30.279368384521955 14.072622303251292  30.426861009890683 14.107869948343968  30.583029672045807 14.143117593436646  C 30.739198334200935 14.178365238529318  30.964775290647236 14.08143421452446  31.259760541384697 13.85232452142206  C 31.554745792122162 13.623214828319659  31.884435190005206 13.319203889395318  32.24882873503383 12.940291704649043  C 32.613222280062466 12.561379519902763  33.064376192955066 11.970981464600424  33.60229047371161 11.169097538742024  C 34.140204754468165 10.367213612883623  34.73017525594309 9.419933151017926  35.37220197813639 8.32725615314494  C 36.413326392503905 6.494378608325733  37.341662328648276 4.511698571862651  38.157209786569496 2.379216043755698  C 38.22661808086066 2.2029778182923114  38.31337844872462 2.0487693710118506  38.417490890161375 1.9165907019143131  C 38.52160333159812 1.784412032816772  38.61703973624848 1.691886964448497  38.70380010411244 1.6390154968094812  L 38.80791254554919 1.5597082953509562  L 38.93805309734513 1.4936189608021873  C 38.93805309734513 1.4936189608021873  39.050841575568285 1.467183226982681  39.276418532014574 1.4143117593436654  C 39.50199548846087 1.3614402917046495  39.6755162241888 1.357034336068063  39.79698073919833 1.401093892433912  L 47.293076522644455 1.3482224247948964  C 47.969807391983345 1.2601033120631981  48.525073746312685 1.2821330902461243  48.958875585632484 1.4143117593436654  C 49.39267742495229 1.5464904284412029  49.661634565330566 1.691886964448497  49.765747006767306 1.850501367365541  Z " fill-rule="nonzero" fill="#000000" stroke="none" transform="matrix(1 0 0 1 782 476 )" />
  </g>
</svg>