<?xml version="1.0" encoding="utf-8"?>
<svg version="1.1" xmlns:xlink="http://www.w3.org/1999/xlink" width="51px" height="46px" xmlns="http://www.w3.org/2000/svg">
  <g transform="matrix(1 0 0 1 -1037 -467 )">
    <path d="M 31.533482142857142 34.52566964285714  C 32.747767857142854 35.14174107142857  33.516183035714285 34.81659226190476  33.83872767857143 33.550223214285715  L 38.02232142857143 15.761160714285715  C 38.19308035714286 15.008184523809518  38.09347098214286 14.469122023809518  37.72349330357143 14.143973214285715  C 37.353515625 13.818824404761903  36.86495535714286 13.758928571428573  36.2578125 13.964285714285715  L 11.668526785714285 22.512276785714285  C 11.118303571428571 22.70052083333333  10.743582589285715 22.914434523809522  10.544363839285715 23.154017857142858  C 10.345145089285715 23.393601190476186  10.321428571428571 23.620349702380956  10.473214285714285 23.834263392857142  C 10.625 24.04817708333333  10.928571428571429 24.215029761904763  11.383928571428571 24.33482142857143  L 17.673549107142858 26.106026785714285  L 32.2734375 17.814732142857142  C 32.671875 17.575148809523807  32.97544642857143 17.52380952380952  33.184151785714285 17.660714285714285  C 33.316964285714285 17.746279761904763  33.27901785714286 17.87462797619047  33.0703125 18.045758928571427  L 21.259486607142858 27.671875  L 20.804129464285715 33.52455357142857  C 21.240513392857142 33.52455357142857  21.667410714285715 33.336309523809526  22.08482142857143 32.95982142857143  L 25.158482142857142 30.29017857142857  L 31.533482142857142 34.52566964285714  Z M 48.97935267857143 14.066964285714285  C 50.326450892857146 16.90773809523809  51 19.885416666666664  51 23  C 51 26.11458333333333  50.326450892857146 29.092261904761905  48.97935267857143 31.933035714285715  C 47.63225446428572 34.773809523809526  45.82031250000001 37.22098214285714  43.543526785714285 39.27455357142857  C 41.26674107142857 41.328125  38.55357142857143 42.962425595238095  35.40401785714286 44.17745535714286  C 32.25446428571429 45.39248511904762  28.953125000000004 46  25.5 46  C 22.046875 46  18.745535714285715 45.39248511904762  15.595982142857144 44.17745535714286  C 12.446428571428573 42.962425595238095  9.733258928571429 41.328125  7.456473214285714 39.27455357142857  C 5.1796875 37.22098214285714  3.3677455357142856 34.773809523809526  2.020647321428571 31.933035714285715  C 0.6735491071428571 29.092261904761905  0 26.11458333333333  0 23  C 0 19.885416666666664  0.6735491071428571 16.90773809523809  2.020647321428571 14.066964285714285  C 3.3677455357142856 11.226190476190473  5.1796875 8.779017857142858  7.456473214285714 6.725446428571426  C 9.733258928571429 4.671875  12.446428571428573 3.0375744047619033  15.595982142857144 1.8225446428571421  C 18.745535714285715 0.6075148809523807  22.046875 0  25.5 0  C 28.953125000000004 0  32.25446428571429 0.6075148809523807  35.40401785714286 1.8225446428571421  C 38.55357142857143 3.0375744047619033  41.26674107142857 4.671875  43.543526785714285 6.725446428571426  C 45.82031250000001 8.779017857142858  47.63225446428572 11.226190476190473  48.97935267857143 14.066964285714285  Z " fill-rule="nonzero" fill="#000000" stroke="none" transform="matrix(1 0 0 1 1037 467 )" />
  </g>
</svg>