<?xml version="1.0" encoding="utf-8"?>
<svg version="1.1" xmlns:xlink="http://www.w3.org/1999/xlink" width="50px" height="46px" xmlns="http://www.w3.org/2000/svg">
  <g transform="matrix(1 0 0 1 -1292 -467 )">
    <path d="M 30.891927083333332 28.42057291666667  C 32.51953125 26.92317708333333  33.33333333333333 25.116319444444443  33.33333333333333 23  C 33.33333333333333 20.88368055555555  32.51953125 19.076822916666664  30.891927083333332 17.579427083333336  C 29.264322916666668 16.08203125  27.300347222222225 15.333333333333336  25 15.333333333333336  C 22.69965277777778 15.333333333333336  20.735677083333336 16.08203125  19.108072916666664 17.579427083333336  C 17.48046875 19.076822916666664  16.666666666666664 20.88368055555555  16.666666666666664 23  C 16.666666666666664 25.116319444444443  17.48046875 26.92317708333333  19.108072916666664 28.42057291666667  C 20.735677083333336 29.91796875  22.69965277777778 30.66666666666667  25 30.66666666666667  C 27.300347222222225 30.66666666666667  29.264322916666668 29.91796875  30.891927083333332 28.42057291666667  Z M 34.08203125 14.64453125  C 36.57769097222223 16.94053819444444  37.82552083333333 19.72569444444444  37.82552083333333 23  C 37.82552083333333 26.274305555555557  36.57769097222223 29.059461805555557  34.08203125 31.35546875  C 31.58637152777778 33.65147569444444  28.55902777777778 34.799479166666664  25 34.799479166666664  C 21.440972222222225 34.799479166666664  18.413628472222225 33.65147569444444  15.91796875 31.35546875  C 13.422309027777779 29.059461805555557  12.174479166666668 26.274305555555557  12.174479166666668 23  C 12.174479166666668 19.72569444444444  13.422309027777779 16.94053819444444  15.91796875 14.64453125  C 18.413628472222225 12.348524305555552  21.440972222222225 11.200520833333336  25 11.200520833333336  C 28.55902777777778 11.200520833333336  31.58637152777778 12.348524305555552  34.08203125 14.64453125  Z M 40.46223958333333 8.774739583333336  C 41.04817708333333 9.313802083333336  41.34114583333333 9.962673611111109  41.34114583333333 10.721354166666664  C 41.34114583333333 11.480034722222221  41.04817708333333 12.12890625  40.46223958333333 12.66796875  C 39.87630208333333 13.20703125  39.17100694444445 13.4765625  38.34635416666667 13.4765625  C 37.52170138888889 13.4765625  36.81640625 13.20703125  36.23046875 12.66796875  C 35.64453125 12.12890625  35.3515625 11.480034722222221  35.3515625 10.721354166666664  C 35.3515625 9.962673611111109  35.64453125 9.313802083333336  36.23046875 8.774739583333336  C 36.81640625 8.235677083333336  37.52170138888889 7.966145833333335  38.34635416666667 7.966145833333335  C 39.17100694444445 7.966145833333335  39.87630208333333 8.235677083333336  40.46223958333333 8.774739583333336  Z M 27.490234375 4.117838541666665  C 25.981987847222225 4.127821180555552  25.151909722222225 4.1328125  25 4.1328125  C 24.84809027777778 4.1328125  24.01801215277778 4.127821180555552  22.509765625 4.117838541666665  C 21.001519097222225 4.107855902777773  19.856770833333336 4.107855902777773  19.075520833333336 4.117838541666665  C 18.294270833333336 4.127821180555552  17.247178819444446 4.157769097222221  15.934244791666666 4.207682291666665  C 14.621310763888893 4.257595486111108  13.503689236111112 4.357421875  12.581380208333334 4.507161458333335  C 11.659071180555557 4.656901041666665  10.883246527777779 4.841579861111108  10.25390625 5.061197916666665  C 9.168836805555557 5.460503472222221  8.213975694444445 6.039496527777773  7.389322916666667 6.798177083333335  C 6.564670138888889 7.556857638888887  5.935329861111112 8.435329861111109  5.501302083333334 9.43359375  C 5.262586805555556 10.012586805555552  5.061848958333334 10.726345486111109  4.899088541666666 11.574869791666664  C 4.736328125 12.423394097222221  4.627821180555556 13.451605902777773  4.573567708333334 14.659505208333336  C 4.519314236111112 15.867404513888886  4.486762152777779 16.830729166666664  4.475911458333334 17.549479166666664  C 4.465060763888889 18.268229166666664  4.465060763888889 19.32139756944444  4.475911458333334 20.708984375  C 4.486762152777779 22.09657118055555  4.4921875 22.86024305555555  4.4921875 23  C 4.4921875 23.139756944444443  4.486762152777779 23.903428819444443  4.475911458333334 25.291015625  C 4.465060763888889 26.678602430555557  4.465060763888889 27.73177083333333  4.475911458333334 28.45052083333333  C 4.486762152777779 29.16927083333333  4.519314236111112 30.132595486111104  4.573567708333334 31.34049479166667  C 4.627821180555556 32.548394097222214  4.736328125 33.57660590277777  4.899088541666666 34.42513020833333  C 5.061848958333334 35.273654513888886  5.262586805555556 35.987413194444436  5.501302083333334 36.56640625  C 5.935329861111112 37.564670138888886  6.564670138888889 38.443142361111114  7.389322916666667 39.201822916666664  C 8.213975694444445 39.96050347222222  9.168836805555557 40.53949652777778  10.25390625 40.938802083333336  C 10.883246527777779 41.158420138888886  11.659071180555557 41.343098958333336  12.581380208333334 41.492838541666664  C 13.503689236111112 41.642578125  14.621310763888893 41.742404513888886  15.934244791666666 41.792317708333336  C 17.247178819444446 41.84223090277778  18.294270833333336 41.87217881944445  19.075520833333336 41.882161458333336  C 19.856770833333336 41.89214409722222  21.001519097222225 41.89214409722222  22.509765625 41.882161458333336  C 24.01801215277778 41.87217881944445  24.84809027777778 41.8671875  25 41.8671875  C 25.151909722222225 41.8671875  25.981987847222225 41.87217881944445  27.490234375 41.882161458333336  C 28.99848090277778 41.89214409722222  30.143229166666668 41.89214409722222  30.924479166666668 41.882161458333336  C 31.705729166666668 41.87217881944445  32.75282118055556 41.84223090277778  34.06575520833333 41.792317708333336  C 35.378689236111114 41.742404513888886  36.49631076388889 41.642578125  37.41861979166667 41.492838541666664  C 38.34092881944445 41.343098958333336  39.11675347222223 41.158420138888886  39.74609375 40.938802083333336  C 40.83116319444445 40.53949652777778  41.78602430555556 39.96050347222222  42.61067708333333 39.201822916666664  C 43.435329861111114 38.443142361111114  44.06467013888889 37.564670138888886  44.49869791666667 36.56640625  C 44.73741319444445 35.987413194444436  44.93815104166667 35.273654513888886  45.10091145833333 34.42513020833333  C 45.263671875 33.57660590277777  45.37217881944445 32.548394097222214  45.42643229166667 31.34049479166667  C 45.48068576388889 30.132595486111104  45.51323784722223 29.16927083333333  45.52408854166667 28.45052083333333  C 45.534939236111114 27.73177083333333  45.534939236111114 26.678602430555557  45.52408854166667 25.291015625  C 45.51323784722223 23.903428819444443  45.5078125 23.139756944444443  45.5078125 23  C 45.5078125 22.86024305555555  45.51323784722223 22.09657118055555  45.52408854166667 20.708984375  C 45.534939236111114 19.32139756944444  45.534939236111114 18.268229166666664  45.52408854166667 17.549479166666664  C 45.51323784722223 16.830729166666664  45.48068576388889 15.867404513888886  45.42643229166667 14.659505208333336  C 45.37217881944445 13.451605902777773  45.263671875 12.423394097222221  45.10091145833333 11.574869791666664  C 44.93815104166667 10.726345486111109  44.73741319444445 10.012586805555552  44.49869791666667 9.43359375  C 44.06467013888889 8.435329861111109  43.435329861111114 7.556857638888887  42.61067708333333 6.798177083333335  C 41.78602430555556 6.039496527777773  40.83116319444445 5.460503472222221  39.74609375 5.061197916666665  C 39.11675347222223 4.841579861111108  38.34092881944445 4.656901041666665  37.41861979166667 4.507161458333335  C 36.49631076388889 4.357421875  35.378689236111114 4.257595486111108  34.06575520833333 4.207682291666665  C 32.75282118055556 4.157769097222221  31.705729166666668 4.127821180555552  30.924479166666668 4.117838541666665  C 30.143229166666668 4.107855902777773  28.99848090277778 4.107855902777773  27.490234375 4.117838541666665  Z M 49.83723958333333 13.506510416666664  C 49.94574652777777 15.263454861111109  50 18.427951388888886  50 23  C 50 27.572048611111114  49.94574652777777 30.736545138888886  49.83723958333333 32.49348958333333  C 49.62022569444445 36.646267361111114  48.27473958333333 39.860677083333336  45.80078125 42.13671875  C 43.32682291666667 44.412760416666664  39.83289930555556 45.650607638888886  35.31901041666667 45.850260416666664  C 33.40928819444445 45.95008680555555  29.969618055555557 46  25 46  C 20.030381944444446 46  16.590711805555554 45.95008680555555  14.680989583333334 45.850260416666664  C 10.167100694444446 45.650607638888886  6.673177083333334 44.412760416666664  4.19921875 42.13671875  C 1.7252604166666667 39.860677083333336  0.3797743055555556 36.646267361111114  0.16276041666666669 32.49348958333333  C 0.05425347222222222 30.736545138888886  0 27.572048611111114  0 23  C 0 18.427951388888886  0.05425347222222222 15.263454861111109  0.16276041666666669 13.506510416666664  C 0.3797743055555556 9.353732638888886  1.7252604166666667 6.139322916666665  4.19921875 3.86328125  C 6.673177083333334 1.587239583333335  10.167100694444446 0.3493923611111083  14.680989583333334 0.14973958333333504  C 16.590711805555554 0.0499131944444382  20.030381944444446 0  25 0  C 29.969618055555557 0  33.40928819444445 0.0499131944444382  35.31901041666667 0.14973958333333504  C 39.83289930555556 0.3493923611111083  43.32682291666667 1.587239583333335  45.80078125 3.86328125  C 48.27473958333333 6.139322916666665  49.62022569444445 9.353732638888886  49.83723958333333 13.506510416666664  Z " fill-rule="nonzero" fill="#000000" stroke="none" transform="matrix(1 0 0 1 1292 467 )" />
  </g>
</svg>