<?xml version="1.0" encoding="utf-8"?>
<svg version="1.1" xmlns:xlink="http://www.w3.org/1999/xlink" width="44px" height="36px" xmlns="http://www.w3.org/2000/svg">
  <g transform="matrix(1 0 0 1 -1550 -472 )">
    <path d="M 43.45572916666667 29.334374999999998  C 43.818576388888886 29.690625000000004  44 30.112500000000004  44 30.599999999999998  L 44 34.199999999999996  C 44 34.6875  43.818576388888886 35.109375  43.45572916666667 35.465624999999996  C 43.09288194444445 35.821875000000006  42.66319444444445 36  42.16666666666667 36  L 1.8333333333333333 36  C 1.3368055555555558 36  0.9071180555555556 35.821875000000006  0.5442708333333333 35.465624999999996  C 0.1814236111111111 35.109375  0 34.6875  0 34.199999999999996  L 0 30.599999999999998  C 0 30.112500000000004  0.1814236111111111 29.690625000000004  0.5442708333333333 29.334374999999998  C 0.9071180555555556 28.978125  1.3368055555555558 28.8  1.8333333333333333 28.8  L 42.16666666666667 28.8  C 42.66319444444445 28.8  43.09288194444445 28.978125  43.45572916666667 29.334374999999998  Z M 43.45572916666667 14.934375  C 43.818576388888886 15.290624999999999  44 15.712499999999999  44 16.2  L 44 19.8  C 44 20.287499999999998  43.818576388888886 20.709374999999998  43.45572916666667 21.065625  C 43.09288194444445 21.421874999999996  42.66319444444445 21.599999999999998  42.16666666666667 21  L 1.8333333333333333 21  C 1.3368055555555558 21.599999999999998  0.9071180555555556 21.421874999999996  0.5442708333333333 21.065625  C 0.1814236111111111 20.709374999999998  0 20.287499999999998  0 19.8  L 0 16.2  C 0 15.712499999999999  0.1814236111111111 15.290624999999999  0.5442708333333333 14.934375  C 0.9071180555555556 14.578125000000004  1.3368055555555558 14.4  1.8333333333333333 15  L 42.16666666666667 15  C 42.66319444444445 14.4  43.09288194444445 14.578125000000004  43.45572916666667 14.934375  Z M 43.45572916666667 0.5343750000000016  C 43.818576388888886 0.8906249999999973  44 1.3124999999999973  44 1.8000000000000016  L 44 5.4  C 44 5.8874999999999975  43.818576388888886 6.3093749999999975  43.45572916666667 6.665625  C 43.09288194444445 7.021874999999996  42.66319444444445 7.199999999999998  42.16666666666667 7.199999999999998  L 1.8333333333333333 7.199999999999998  C 1.3368055555555558 7.199999999999998  0.9071180555555556 7.021874999999996  0.5442708333333333 6.665625  C 0.1814236111111111 6.3093749999999975  0 5.8874999999999975  0 5.4  L 0 1.8000000000000016  C 0 1.3124999999999973  0.1814236111111111 0.8906249999999973  0.5442708333333333 0.5343750000000016  C 0.9071180555555556 0.17812499999999787  1.3368055555555558 0  1.8333333333333333 0  L 42.16666666666667 0  C 42.66319444444445 0  43.09288194444445 0.17812499999999787  43.45572916666667 0.5343750000000016  Z " fill-rule="nonzero" fill="#000000" stroke="none" transform="matrix(1 0 0 1 1550 472 )" />
  </g>
</svg>